<svg width="24" height="24" viewBox="0 0 24 24" fill="none" xmlns="http://www.w3.org/2000/svg">
<g clip-path="url(#clip0_410_11)">
<path d="M11.9988 23.9975C18.6255 23.9975 23.9975 18.6255 23.9975 11.9988C23.9975 5.37203 18.6255 0 11.9988 0C5.37203 0 0 5.37203 0 11.9988C0 18.6255 5.37203 23.9975 11.9988 23.9975Z" fill="black"/>
<path d="M11.9988 22.793C17.9603 22.793 22.793 17.9603 22.793 11.9988C22.793 6.03732 17.9603 1.20459 11.9988 1.20459C6.03735 1.20459 1.20462 6.03732 1.20462 11.9988C1.20462 17.9603 6.03735 22.793 11.9988 22.793Z" stroke="white" stroke-width="76.9783" stroke-miterlimit="10"/>
</g>
<path d="M8.50423 10.5637L12 7.068L15.4973 10.5653L17.5313 8.53126L12 3L6.47039 8.5296L8.50431 10.5636L8.50423 10.5637ZM3 12L5.03406 9.96564L7.06798 11.9996L5.03392 14.0336L3 12ZM8.50423 13.4365L12 16.932L15.4973 13.4348L17.5323 15.4677L17.5313 15.4688L12 21L6.47039 15.4704L6.46751 15.4675L8.50445 13.4363L8.50423 13.4365ZM16.9319 12.0009L18.966 9.96679L20.9999 12.0007L18.9659 14.0348L16.9319 12.0009Z" fill="#F3BA2F"/>
<path d="M14.0629 11.999H14.0638L12 9.935L10.4745 11.4601L10.2993 11.6354L9.93782 11.9969L9.93494 11.9997L9.93782 12.0027L12 14.0652L14.0639 12.0012L14.0649 12L14.063 11.999" fill="#F3BA2F"/>
<defs>
<clipPath id="clip0_410_11">
<rect width="24" height="24" fill="white"/>
</clipPath>
</defs>
</svg>
