<svg width="24" height="24" viewBox="0 0 24 24" fill="none" xmlns="http://www.w3.org/2000/svg">
<path d="M12 0C18.628 0 24 5.37305 24 12C24 18.628 18.628 24 12 24C5.37305 24 0 18.6275 0 12C0 5.37305 5.37305 0 12 0Z" fill="#FBDC3B"/>
<path d="M11.8203 16.3047V13.0312C10.7995 12.7396 10.0495 12.2995 9.57031 11.7109C9.09635 11.1172 8.85938 10.3984 8.85938 9.55469C8.85938 8.70052 9.1276 7.98438 9.66406 7.40625C10.2057 6.82292 10.9245 6.48698 11.8203 6.39844V5.625H12.9531V6.39844C13.7812 6.4974 14.4401 6.78125 14.9297 7.25C15.4193 7.71354 15.7318 8.33594 15.8672 9.11719L13.8906 9.375C13.7708 8.76042 13.4583 8.34375 12.9531 8.125V11.1797C14.2031 11.5182 15.0547 11.9583 15.5078 12.5C15.9609 13.0365 16.1875 13.7266 16.1875 14.5703C16.1875 15.513 15.901 16.3073 15.3281 16.9531C14.7604 17.599 13.9688 17.9948 12.9531 18.1406V19.6016H11.8203V18.1797C10.9193 18.0703 10.1875 17.7344 9.625 17.1719C9.0625 16.6094 8.70312 15.8151 8.54688 14.7891L10.5859 14.5703C10.6693 14.987 10.8255 15.3464 11.0547 15.6484C11.2839 15.9505 11.5391 16.1693 11.8203 16.3047ZM11.8203 8.10156C11.513 8.20573 11.2682 8.38281 11.0859 8.63281C10.9036 8.88281 10.8125 9.15885 10.8125 9.46094C10.8125 9.73698 10.8958 9.99479 11.0625 10.2344C11.2292 10.4688 11.4818 10.6589 11.8203 10.8047V8.10156ZM12.9531 16.4141C13.3438 16.3411 13.6615 16.1615 13.9062 15.875C14.151 15.5833 14.2734 15.2422 14.2734 14.8516C14.2734 14.5026 14.1693 14.2031 13.9609 13.9531C13.7578 13.6979 13.4219 13.5026 12.9531 13.3672V16.4141Z" fill="black"/>
</svg>
