<svg width="24" height="24" viewBox="0 0 24 24" fill="none" xmlns="http://www.w3.org/2000/svg">
<path d="M12 0C18.628 0 24 5.37305 24 12C24 18.628 18.628 24 12 24C5.37305 24 0 18.6275 0 12C0 5.37305 5.37305 0 12 0Z" fill="#C7C5BC"/>
<path d="M12.027 3.09752V3.10639C12.0358 3.15073 12.0358 3.20393 12.0358 3.25713V9.65023C12.027 9.6857 12.0004 9.69457 11.9738 9.7123C11.7876 9.80097 11.6102 9.88078 11.424 9.96058C11.1669 10.0759 10.9009 10.2 10.6437 10.3153L9.71268 10.7409C9.45554 10.8561 9.19839 10.9714 8.95012 11.0867C8.64864 11.2286 8.3383 11.3616 8.03682 11.5034C7.77968 11.6187 7.52253 11.7428 7.25652 11.8581C7.04371 11.9557 6.83091 12.0443 6.62697 12.1419C6.60923 12.1507 6.5915 12.1596 6.57376 12.1596C6.5649 12.1596 6.5649 12.1596 6.55603 12.1507L6.79544 11.7517C7.25652 10.9892 7.70874 10.2355 8.16982 9.47289C8.65751 8.65713 9.15406 7.84137 9.64174 7.0256C10.094 6.27191 10.555 5.51821 11.0073 4.76452C11.3353 4.21477 11.6723 3.66501 12.0004 3.11526C12.0092 3.09752 12.0181 3.08866 12.0181 3.07092H12.027C12.0181 3.07979 12.027 3.08866 12.027 3.09752Z" fill="#C9CCD6"/>
<path d="M17.4709 12.1507L17.4798 12.1596L16.1763 12.931L12.0798 15.3517C12.0621 15.3606 12.0443 15.3694 12.0355 15.3783C12.0089 15.3783 12.0089 15.3517 12.0089 15.3428V15.263V9.78322C12.0089 9.75662 12.0089 9.72115 12.0177 9.69455C12.0266 9.65908 12.0532 9.66795 12.0798 9.67682C12.1951 9.73002 12.3192 9.78322 12.4345 9.83642C12.7803 9.99603 13.1261 10.1556 13.4719 10.3064C13.7734 10.4394 14.066 10.5812 14.3675 10.7143C14.6689 10.8473 14.9704 10.9891 15.2719 11.1221C15.529 11.2374 15.7951 11.3615 16.0522 11.4768C16.3093 11.5921 16.5754 11.7162 16.8325 11.8315C17.0364 11.9202 17.2404 12.0177 17.4443 12.1064C17.4443 12.133 17.4532 12.1418 17.4709 12.1507Z" fill="#484953"/>
<path d="M12.0266 20.8847C12.0266 20.8936 12.0177 20.9025 12.0177 20.9113H12.0089C12.0089 20.8936 11.9911 20.8847 11.9823 20.867C11.4325 20.0956 10.8828 19.3153 10.333 18.5438C9.77438 17.7547 9.2069 16.9567 8.64828 16.1675C8.10739 15.4049 7.55763 14.6335 7.01675 13.8709C6.87488 13.667 6.733 13.4719 6.59113 13.268C6.58227 13.2503 6.5734 13.2414 6.55566 13.2148C6.58227 13.2148 6.6 13.2325 6.60887 13.2414C7.38029 13.6936 8.14286 14.1458 8.91428 14.598C9.80098 15.1212 10.6788 15.6443 11.5655 16.1675L12.0177 16.4335C12.0355 16.4512 12.0355 16.469 12.0355 16.4867V20.7606C12.0355 20.8049 12.0355 20.8493 12.0266 20.8847Z" fill="#C9CCD6"/>
<path d="M6.54678 12.1685V12.1596C6.83053 12.0355 7.1054 11.9025 7.38915 11.7783C7.75269 11.6098 8.11624 11.4502 8.47979 11.2818C8.75466 11.1576 9.03841 11.0246 9.31329 10.9005C9.72117 10.7143 10.1202 10.5369 10.5281 10.3507C10.8029 10.2266 11.0778 10.1025 11.3616 9.96945C11.5566 9.88078 11.7606 9.79211 11.9556 9.70344C11.9734 9.69457 12 9.6857 12.0089 9.66797C12.0177 9.66797 12.0177 9.67684 12.0089 9.6857V15.3162C12.0089 15.3428 12 15.3694 12.0177 15.3872C12 15.4138 11.9823 15.3872 11.9734 15.3783C11.8936 15.334 11.8138 15.2896 11.734 15.2364C10.0226 14.2256 8.30245 13.2059 6.59112 12.1951C6.58225 12.1862 6.56452 12.1773 6.54678 12.1685Z" fill="black"/>
<path d="M17.4532 13.2148H17.4621C17.4621 13.2325 17.4443 13.2503 17.4355 13.268C15.8039 15.5645 14.1724 17.87 12.5409 20.1665C12.3724 20.4059 12.1951 20.6453 12.0266 20.8847C12.0177 20.8759 12.0177 20.867 12.0177 20.8581V20.8049V16.5044V16.4246C12.3901 16.203 12.7537 15.9902 13.1261 15.7685C14.5626 14.9172 15.999 14.0749 17.4266 13.2237C17.4355 13.2325 17.4443 13.2236 17.4532 13.2148Z" fill="black"/>
<path d="M12.0177 9.68569V9.66796V9.61476V3.17732C12.0177 3.15072 12.0089 3.13299 12.0266 3.10638C13.8266 6.09456 15.6266 9.07387 17.4177 12.062C17.4355 12.0887 17.4621 12.1241 17.4709 12.1596C17.3468 12.1153 17.2315 12.0532 17.1163 12C16.9744 11.9379 16.8236 11.867 16.6818 11.8049C16.5931 11.7606 16.4956 11.7251 16.4069 11.6808C16.2562 11.6098 16.1054 11.5478 15.9547 11.4768C15.866 11.4414 15.7773 11.397 15.6887 11.3527L15.1034 11.0867C15.0059 11.0423 14.9084 10.998 14.802 10.9537L14.3764 10.7675C14.2877 10.732 14.199 10.6877 14.1103 10.6433L13.5251 10.3773C13.4276 10.333 13.33 10.2887 13.2236 10.2443L12.798 10.0581C12.7005 10.0138 12.6118 9.96944 12.5143 9.9251C12.3458 9.8453 12.1773 9.7655 12 9.69456C12.0266 9.6857 12.0177 9.68569 12.0177 9.68569Z" fill="black"/>
</svg>
