<svg width="94" height="24" viewBox="0 0 94 24" fill="none" xmlns="http://www.w3.org/2000/svg">
<path d="M33.8476 11.981H29.4286V2.68572H33.7524C35.6571 2.68572 36.8191 3.63809 36.8191 5.08571V5.10476C36.8191 6.15238 36.2666 6.74286 35.6 7.10476C36.6666 7.52381 37.3333 8.13333 37.3333 9.39048V9.40952C37.3333 11.1429 35.9619 11.981 33.8476 11.981ZM34.781 5.44762C34.781 4.8381 34.3048 4.49524 33.4476 4.49524H31.4286V6.45714H33.3143C34.2095 6.45714 34.781 6.17143 34.781 5.46667V5.44762ZM35.2952 9.16191C35.2952 8.53333 34.8381 8.15238 33.7905 8.15238H31.4286V10.1905H33.8667C34.7619 10.1905 35.3143 9.86667 35.3143 9.18095V9.16191H35.2952ZM39.581 11.981V2.68572H41.619V11.981H39.581ZM50.8762 11.981L46.381 6.07619V11.981H44.3619V2.68572H46.2476L50.6095 8.41905V2.68572H52.6286V11.981H50.8762ZM61.8095 11.981L60.9524 9.90476H57.0286L56.1714 11.981H54.0952L58.0762 2.60952H59.9619L63.9428 11.981H61.8095ZM58.9905 5.08571L57.7524 8.09524H60.2286L58.9905 5.08571ZM71.9619 11.981L67.4667 6.07619V11.981H65.4476V2.68572H67.3333L71.6952 8.41905V2.68572H73.7143V11.981H71.9619ZM80.4381 12.1524C77.6953 12.1524 75.6762 10.0381 75.6762 7.37143V7.35238C75.6762 4.70476 77.6762 2.55238 80.5333 2.55238C82.2857 2.55238 83.3333 3.14286 84.1905 3.98095L82.8952 5.48571C82.1714 4.8381 81.4476 4.4381 80.5143 4.4381C78.9524 4.4381 77.8095 5.73333 77.8095 7.33333V7.35238C77.8095 8.95238 78.9143 10.2667 80.5143 10.2667C81.5809 10.2667 82.2286 9.84762 82.9524 9.18095L84.2476 10.4952C83.2952 11.5048 82.2476 12.1524 80.4381 12.1524ZM85.9048 11.981V2.68572H92.9143V4.51429H87.9428V6.4H92.3238V8.22857H87.9428V10.1905H92.9905V12.019H85.9048V11.981ZM51.6571 21.3905C49.7333 21.3905 48.3048 19.9048 48.3048 18C48.3048 16.1143 49.7143 14.5905 51.6952 14.5905C52.9143 14.5905 53.6381 15.0095 54.2666 15.619L53.5238 16.4762C52.9905 15.981 52.4381 15.6571 51.6762 15.6571C50.4191 15.6571 49.5047 16.6857 49.5047 17.981C49.5047 19.2762 50.4191 20.3238 51.6762 20.3238C52.4762 20.3238 53.0095 20 53.5619 19.4667L54.3048 20.2095C53.6381 20.9333 52.8952 21.3905 51.6571 21.3905ZM56.9905 18.5143V21.2952H55.8286V14.7048H56.9905V17.4476H60.1333V14.7048H61.2952V21.2952H60.1333V18.5143H56.9905ZM69.5619 21.2762H68.3429L67.6762 19.6952H64.5714L63.8857 21.2762H62.7048L65.6 14.6476H66.6667L69.5619 21.2762ZM66.1143 16.0381L64.9905 18.6667H67.2572L66.1143 16.0381ZM75.2 21.2762L73.581 18.9905H72.1333V21.2762H70.9715V14.6857H73.9048C75.4095 14.6857 76.3429 15.4857 76.3429 16.781C76.3429 17.8667 75.6953 18.5333 74.781 18.781L76.5524 21.2762H75.2ZM73.8095 15.7524H72.1333V17.9619H73.8286C74.6476 17.9619 75.1809 17.5238 75.1809 16.8571C75.1809 16.1333 74.6667 15.7524 73.8095 15.7524ZM79.3333 14.7048V21.2952H78.1714V14.7048H79.3333ZM84.0572 21.2762H82.8952V15.7714H80.8V14.7048H86.1333V15.7714H84.0381V21.2762H84.0572ZM91.0476 21.2762H89.8857V18.6857L87.2762 14.7048H88.6476L90.4953 17.619L92.3619 14.7048H93.6952L91.0857 18.6667V21.2762H91.0476ZM45.2 17.4476H29.4286V18.5524H45.2V17.4476ZM2.70475 9.27619L0 11.981L2.70475 14.6857L5.40951 11.981L2.70475 9.27619ZM12 5.40952L16.6476 10.0571L19.3524 7.35238L12 0L4.6476 7.35238L7.3524 10.0571L12 5.40952ZM21.2952 9.27619L18.5905 11.981L21.2952 14.6857L24 11.981L21.2952 9.27619ZM12 18.5714L7.3524 13.9238L4.6476 16.6286L12 24L19.3524 16.6476L16.6476 13.9429L12 18.5714ZM12 14.7048L14.7048 12L12 9.29524L9.29525 12L12 14.7048Z" fill="#F0B90B"/>
</svg>
